<?xml version="1.0" encoding="utf-8"?>
<!-- Generator: Adobe Illustrator 24.0.3, SVG Export Plug-In . SVG Version: 6.00 Build 0)  -->
<svg version="1.1" id="Layer_1" xmlns="http://www.w3.org/2000/svg" xmlns:xlink="http://www.w3.org/1999/xlink" x="0px" y="0px"
	 viewBox="0 0 800.2 94.2" style="enable-background:new 0 0 800.2 94.2;" xml:space="preserve">
<style type="text/css">
	.st0{fill:url(#SVGID_1_);}
</style>
<linearGradient id="SVGID_1_" gradientUnits="userSpaceOnUse" x1="86.5695" y1="-169.0276" x2="845.1325" y2="329.0224">
	<stop  offset="0" style="stop-color:#174873"/>
	<stop  offset="0.2406" style="stop-color:#1B4E6B"/>
	<stop  offset="0.6153" style="stop-color:#285E55"/>
	<stop  offset="0.9939" style="stop-color:#387338"/>
</linearGradient>
<path class="st0" d="M733.4,82.6L733.4,82.6c-3.2-0.6-6.2-2.2-8.4-4.6c-2.5-2.4-4.9-4.9-7.2-7.7c-0.5-0.4-0.9-1-1.3-1.5
	c-1.2-2-2.5-4-3.8-5.9c-1.1-1.6-2.2-3.3-3.2-5c-1.3-2.2-1.6-2.7-1.6-3.1c0-0.3,0.4-0.4,1.4-0.7l1-0.3c8.7-2.6,14.4-4.4,19.8-9.9
	c5-5.1,10.8-14.4,10.8-23.7c0-3.1-0.8-6.2-2.2-8.9c-1.3-2.3-3.2-4.2-5.4-5.5C728.8,2.3,719.6,2,716.8,2c-10.4,0.2-20.3,3.5-28.7,9.6
	c-1.2,0.9-1.2,1.4-1.2,2.3c0.4,2.4,1.8,4.6,3.8,5.9c0.6,0.5,0.8,0.7,0.8,0.9c0,0.2-0.4,1.3-0.7,2c-0.2,0.5-0.4,1-0.4,1.2
	c-0.3,1.2-1,2.5-1.7,3.7c-0.6,1.1-1.2,2.2-1.6,3.3c-5.7,15.4-10.1,31.4-13,47.6l-0.1,0.4c-0.3,1.9-0.5,3-0.5,3.4
	c0,2.2,2.2,3.4,5.6,5.1c1.1,0.5,2.3,0.7,3.5,0.7c3.2,0,6.9-1.4,6.9-3.4c0.6-7.7,1.8-15.5,3.6-23c0.3-1.3,0.9-3.5,1.1-3.7
	c0.2,0.1,0.7,1.1,1.9,3.4C699.7,68,707,81.6,720,89.6c4.1,2.7,8.8,4.3,13.7,4.6c5.1,0,5.6-2.8,5.6-4
	C738.9,86.7,736.6,83.8,733.4,82.6z M725.4,15.5c-0.1,10.4-5.8,20-14.9,25c-1.9,1-3.9,1.8-6,2.2c-1.1,0.5-2.3,0.7-3.5,0.8
	c-0.7,0-0.8-0.1-0.8-0.1c0,0,0,0,0,0c0.1-0.8,0.3-1.6,0.7-2.4c2.9-9.1,6.9-17.8,11.7-26c0.3-0.6,0.4-0.7,1.4-1
	c2.4-0.9,5-1.4,7.6-1.4C725.4,12.4,725.4,14.2,725.4,15.5z M413.4,13.9c0.5,0.7,0.8,1.6,0.9,2.4c0,1.1-0.3,1.6-0.6,2.2
	c-0.2,0.3-0.4,0.7-0.6,1.2c-1,2.8-2.4,5.1-3.8,7.6c-1.4,2.5-2.9,5.1-4.2,8.3c-6.7,17.7-9.9,36.2-9.4,55.1c0,1.4-1.3,2.4-3.2,2.4
	c-1.5-0.1-3-0.5-4.4-1.2c-1.9-0.7-3.6-1.7-5.3-2.8c-2.3-1.3-3.1-1.8-3.1-3.5c-0.1-1.1,0.1-2.2,0.6-3.2c0.4-0.6,0.6-1.2,0.6-1.9
	c0.3-2.4,0.6-5,0.8-7.6c0.5-4.8,1-9.8,1.6-13.2c0.2-0.7,0.3-1.5,0.4-2.2c-0.6,0.5-1.1,1.1-1.6,1.7c-8,9.7-16.9,18.9-26.2,27.2
	c-2.1,1.6-4.6,2.5-7.3,2.6c-3.3,0-4.8-1-6.4-2.1c-1-0.7-2.1-1.4-3.8-1.9c-3.2-0.8-4.5-1.7-5.2-3.4c-0.6-2.9-0.8-5.8-0.7-8.6
	c0.2-7,1.3-14,3.5-20.6c3-9,6.6-18.1,10.2-26.8c2.3-5.7,4.7-11.5,6.8-17.3c0.5-1.3,1.1-2.6,1.9-3.8c0.6-1.1,2.1-4.1,5.2-4.1
	c1.5,0,2,0.2,3,0.7c0.5,0.3,1.2,0.6,2.3,1c5.2,1.9,5.2,4.1,5.2,6.8c0,0.8-0.4,1.5-0.8,2.2c-0.2,0.4-0.4,0.8-0.6,1.3
	c-2.5,6.1-5.2,11.9-7.8,17.6c-5.9,12.6-11.5,24.6-13.5,37.6c-0.3,2.3-0.5,4.6-0.5,6.8c0,0.1,0,0.2,0,0.3c0.8-0.4,1.6-0.9,2.1-1.6
	c0.6-0.8,1.3-1.5,2.1-2.1c16.2-15.8,30.7-33.3,43-52.3c0.7-1.2,1.2-2.2,1.7-3.2c0.5-1,0.9-1.9,1.5-2.9c1.3-2.4,3.8-3.9,6.5-4
	c0,0,0,0,0,0c0.3,0,0.8,0.1,1.5,0.2c0.5,0.1,1.2,0.2,1.8,0.2c1.6-0.1,3.1,0.8,3.9,2.2L413.4,13.9z M800.2,23.5
	c0,2.2-1.4,3.2-4.3,3.2c-1.1,0-2.2-0.2-3.2-0.5c-2.9-1-5.5-2.9-7.5-5.3c-0.5-0.5-0.8-1.8-1.2-3.4c-0.3-1.4-0.7-3-1.3-4
	c-0.4-1-1.3-1.7-2.3-1.8c-0.6,0-2.1,3.6-2.1,8.2c0.1,4.5,0.7,8.9,1.7,13.3c0.7,2.9,1.9,7.1,3.1,11.5c2.4,8.6,5.2,18.4,6.3,25.1
	c0.5,2.6,0.9,5.3,1,8c0.5,5.9-3.2,11.4-8.9,13.1c-1.6,0.5-3.3,0.7-4.9,0.7c-0.4,0-0.8,0-1.1,0c0,0,0,0,0,0
	c-12.3,0-24.8-6.6-34.2-18.1l-0.1-0.1c-0.8-0.9-1.4-1.6-2-2.2c-0.7-0.8-1.3-1.4-1.9-2.2c-2.3-3.3-3.7-7.2-4-11.2
	c-0.3-2.5,0.9-4.9,3.2-6.1c0.6-0.2,1.2-0.3,1.8-0.3c2.9,0.1,5.7,1,8.2,2.4c2.5,1.5,5.4,4.3,5.4,5.6c0,0.9-0.2,1.7-0.4,2.5
	c-0.2,0.7-0.3,1.4-0.3,2.1c0,3.9,7.5,10.8,12.6,13.6c2.1,1.4,4.3,2.3,6.8,2.7c2-0.1,3.5-1.8,3.5-3.9c0-3.3-0.2-6.5-0.5-9.8
	c-1.2-7.9-3.3-15.1-5.4-22c-1.7-5.9-3.6-12.1-4.9-18.8c-0.8-3.3-1.2-6.6-1.4-10c0-1.1,0.2-2.1,0.4-3.1c0.1-0.5,0.2-1,0.3-1.6
	C763.4,7,764.6,0,772.2,0c8.9,0,15.9,2.3,20.7,6.9c4.3,4.1,6,9.2,6.6,12.7C799.9,20.9,800.1,22.2,800.2,23.5z M535.2,9.8L535.2,9.8
	c-5.9-4.4-10.5-7.2-20.2-7.2c-9.7,0.5-19,3.5-27.1,8.8c0,0,0-0.1,0-0.1c0-2.5-8.6-8.2-14.8-8.2c-6.8,0.1-13.6,0.8-20.2,2.1
	c-6.4,1.1-12.9,1.8-19.4,2c-3-0.1-6.1-0.4-9.2-0.9c-1.3,0-2.6,0.6-3.4,1.7c-0.9,1.8-1.3,3.9-1.1,5.8c-0.2,1.1,0.1,2.2,0.8,3.2
	c2.3,2.7,6.9,3,10.1,3c2.5,0,4.2-0.1,5.1-0.2c0.3,0,0.5,0,0.6,0c0.3,0,0.3,0.1,0.3,0.1c-0.2,0.9-0.6,1.8-1.1,2.6
	c-8,17.5-14.4,35.8-18.9,54.5c-0.3,1.5-0.5,3-0.5,4.6c-0.2,2.1,0.8,4.1,2.6,5.2c2.6,1.7,5.7,2.8,8.8,3.1c3.1,0,4.8-1.9,4.8-5.3
	c0-2.5,0.1-5,0.5-7.5c3.2-17.8,9.4-34.8,18.2-50.5c1.9-3.4,3-5.3,3.7-6.5c0.9-1.6,1.1-1.8,1.1-2.3c0-0.3-0.1-0.5-0.2-0.8
	c5.7-1.2,11.5-1.8,17.2-1.9c1.3,0.2,2.5,0.6,3.6,1.3c0.6,0.7,1.3,1.2,2.2,1.6c-0.4,0.4-0.8,0.9-1.2,1.4c-1,1.7-1.5,3.6-1.4,5.4
	c0,0.2,0,0.4,0,0.6c0,3,2.4,5.5,5.4,5.5c0.5,0,1-0.1,1.5-0.2c0.4-0.1,0.7-0.2,0.8-0.2c0,0,0.1,0.1,0.1,0.1c-0.2,1.2-0.5,2.3-1.1,3.4
	c-4.9,11.9-9,24.3-12.3,36.8c-0.5,2-0.5,2-1.3,2c-0.3,0-0.6-0.1-0.9-0.2c-0.4-0.1-0.7-0.2-1.1-0.2c-0.4,0-1.2-0.1-2.1-0.2
	c-1.1-0.1-2.4-0.2-3.3-0.2c-2.8,0-4.3,1.1-4.3,3.3c0,5.2,8.3,8.8,10.9,9.8c1,0.4,1.3,0.7,1.7,1.3c0.5,0.6,1,1.3,2.5,2.2
	c1.7,1.5,3.9,2.3,6.2,2.3c3.3,0,3.8-0.4,4.1-0.7c0.1-0.1,0.2-0.1,0.4-0.1c3,0.7,6,1.1,9.1,1.2c0,0,0.1,0,0.1,0c3,0,6-0.8,8.7-2.3
	c10-4.6,21.3-13.1,36.4-44.3c0.7-1.4,1.1-2.4,1.4-3.2c0.3-0.7,0.6-1.4,1-2.3c2.3-4.4,3.6-9.4,3.8-14.3
	C543.9,16.8,539.4,12.9,535.2,9.8z M506.8,19.6c0.7-0.8,1.5-1.6,1.5-2.6c0-0.3,0-0.7-0.1-0.9l0.4-0.2c3.5-1.5,7.3-2.5,11.1-2.9
	c7.7,0,8.3,7.3,8.3,9.6c0,1.9-0.3,3.2-3.1,10.2l0,0c-6,15.8-15.1,30-27,42c-2.3,2.4-5.3,4-8.6,4.7c-0.9,0.3-1.8,0.4-2.7,0.4
	c-1.9,0-2.1-0.1-2.1-0.4c0.5-3.9,1.4-7.8,2.4-11.6c3.7-14.2,10.1-27.9,16.3-41.2c0.9-1.9,1.7-3.7,2.6-5.6
	C505.9,20.6,506.3,20.1,506.8,19.6z M661.1,7.6c-1.3-1.2-3-1.8-4.8-1.8c-2-0.3-3.9-0.9-5.7-1.8c-1.4-0.6-2.8-1-4.3-1.1
	c-1.3,0-3.4,0.6-9.2,4.9c-4.5,3.7-8.3,8.1-11.4,13.1c-8.4,12.2-16.1,26.3-16.1,46c-0.3,5.5,1.3,11,4.5,15.5c2.2,3.1,5.3,5.5,8.8,7
	c3,0.9,6.1,1.4,9.3,1.5c0,0,0,0,0.1,0c7.4,0,14.5-3.1,19.5-8.5c9.8-12.3,14.8-29.6,17.8-41.5c0.9-3.4,1.3-6.8,1.4-10.3
	C671.3,21.8,667.7,13.4,661.1,7.6z M646.6,18.3c1.7-1.8,2-1.8,2.3-1.8c0,0,0.1,0.1,0.2,0.2c0.3,0.2,0.7,0.6,1.6,0.9
	c4.3,1.3,4.3,10,4.3,10.4c0,14.4-9.9,37-16.7,47.1c-1.8,2.5-4.5,4.1-7.5,4.3c-1.7,0-3.1-1-3.9-2.5c-1.7-2.9-2.6-6.1-2.5-9.5
	c-0.1-5.7,0.7-11.3,2.3-16.7c3.8-11.9,10.5-22.9,19.2-31.8L646.6,18.3L646.6,18.3z M594.9,7.6c-1.3-1.2-3.1-1.8-4.8-1.8
	c-2-0.3-3.9-0.9-5.7-1.8c-1.4-0.6-2.8-1-4.3-1.1c-1.3,0-3.4,0.6-9.2,4.9c-4.5,3.7-8.3,8.1-11.4,13.1c-8.4,12.2-16.1,26.3-16.1,46
	c-0.3,5.5,1.3,11,4.5,15.5c1.9,2.6,4.4,4.8,7.3,6.3h-0.8l2.4,0.7c3,0.9,6.1,1.4,9.3,1.5c0,0,0,0,0.1,0c7.4,0,14.5-3.1,19.5-8.5
	c9.8-12.3,14.8-29.6,17.8-41.5c0.9-3.4,1.3-6.8,1.4-10.3C605.2,21.8,601.6,13.4,594.9,7.6z M580.4,18.3c1.7-1.8,2-1.8,2.4-1.8
	c0,0,0.1,0.1,0.2,0.2c0.3,0.2,0.7,0.6,1.6,0.9c4.3,1.3,4.3,10,4.3,10.4c0,14.4-9.9,37-16.7,47.1c-1.8,2.5-4.5,4.1-7.5,4.3
	c-1.7,0-3.1-1-3.9-2.5c-1.7-2.9-2.6-6.1-2.5-9.5c-0.1-5.7,0.7-11.3,2.3-16.7c3.8-11.9,10.5-22.9,19.2-31.8L580.4,18.3L580.4,18.3z
	 M318,7.6c-1.3-1.2-3.1-1.9-4.8-1.8c-2-0.3-3.9-0.9-5.7-1.8c-1.4-0.6-2.8-1-4.3-1.1c-1.3,0-3.4,0.6-9.2,4.9
	c-4.5,3.7-8.3,8.1-11.4,13.1c-8.4,12.2-16.1,26.2-16.1,46c-0.3,5.5,1.3,11,4.5,15.5c1.9,2.6,4.4,4.8,7.3,6.3h-0.8l2.4,0.7
	c3,0.9,6.1,1.4,9.3,1.5c0,0,0,0,0.1,0c7.4,0,14.5-3.1,19.5-8.5c9.8-12.3,14.8-29.6,17.8-41.5c0.9-3.4,1.3-6.8,1.4-10.3
	C328.2,21.8,324.6,13.4,318,7.6z M303.5,18.3c1.7-1.8,2-1.8,2.4-1.8c0,0,0.1,0.1,0.2,0.2c0.3,0.2,0.7,0.6,1.6,0.9
	c4.3,1.3,4.3,10,4.3,10.4c0,14.4-9.9,37-16.7,47.1c-1.8,2.5-4.5,4.1-7.5,4.3c-1.7,0-3.1-1-3.9-2.5c-1.7-2.9-2.6-6.1-2.5-9.5
	c-0.1-5.7,0.7-11.3,2.3-16.7c3.8-11.9,10.5-22.9,19.2-31.8L303.5,18.3L303.5,18.3z M11.7,47c0,0.5,0,1.1,0,1.6
	c-0.3,8.4,6.3,15.6,14.7,15.9c0.5,0,0.9,0,1.4,0c3.1,0.1,6.2-0.7,8.9-2.1v-4.9h-6.9l0-9.6l6.9,0h10.5v20.1c-5.9,4.1-12.9,6.4-20,6.3
	C11.5,74.2,0,63.5,0,48.6l0,0c0-15,11.5-25.6,27.3-25.6c7.8-0.4,15.5,2.8,20.8,8.6l-7.4,6.8c-3.3-3.6-7.9-5.7-12.8-5.6
	C19.4,32.2,12.2,38.6,11.7,47z M203.5,23.8h43.2v9.3h-15.9v40.2l-11.5,0V33.1h-15.9V23.8z M172.9,23.8l-22.1,49.6h11.8l4.4-10.6h23
	l4.4,10.6h12l-22.2-49.6H172.9z M170.6,54l7.9-19l7.9,19H170.6z M121.2,64.1h27v9.2l-38.4,0V23.8h37.5V33h-26.1v10.8h23v8.9h-23
	V64.1z M100.7,41.8c0-11.1-8.3-18-21.5-18H57.7v49.6h11.5V59.5h10.6l9.6,13.8h12.3L90.5,57.4C96.9,54.9,101,48.6,100.7,41.8z
	 M78.6,50.4h-9.3V33.1h9.3c7,0,10.6,3.2,10.6,8.6C89.1,47.1,85.6,50.4,78.6,50.4z"/>
</svg>
